<svg width="33" height="33" viewBox="0 0 48 48" fill="currentColor" xmlns="http://www.w3.org/2000/svg"><path fill-rule="evenodd" clip-rule="evenodd" d="M26.2627 5.14086C27.0249 4.83858 27.8944 5.03217 28.4564 5.62927L44.4564 22.6293C45.1812 23.3994 45.1812 24.6006 44.4564 25.3707L28.4564 42.3707C27.8944 42.9678 27.0249 43.1614 26.2627 42.8591C25.5005 42.5569 25 41.82 25 41V32.5621C19.365 32.9136 14.8898 34.7029 11.736 36.49C9.97604 37.4874 8.63311 38.4812 7.73929 39.2164C7.29282 39.5837 6.95983 39.8853 6.74434 40.0888C6.63664 40.1905 6.55845 40.2676 6.51025 40.316C6.48616 40.3402 6.46958 40.3572 6.46058 40.3665L6.4564 40.3707C6.45604 40.3711 6.45568 40.3715 6.45532 40.3719C6.45502 40.3722 6.45472 40.3725 6.45442 40.3728C6.454 40.3733 6.45358 40.3737 6.45316 40.3742C6.45305 40.3743 6.45326 40.3741 6.45316 40.3742C5.89108 40.9683 5.02332 41.1608 4.26271 40.8591C3.50049 40.5569 3 39.82 3 39C3 37.3105 3.71048 34.991 4.78949 32.6236C5.90132 30.1843 7.51673 27.4503 9.55935 24.8805C13.2198 20.2754 18.5168 15.8846 25 15.1179V7.00061C25 6.18065 25.5005 5.44313 26.2627 5.14086ZM29 12.0432V17C29 18.1046 28.1046 19 27 19C21.3967 19 16.4105 22.6897 12.6906 27.3695C11.0464 29.4381 9.71235 31.626 8.74629 33.6101C9.07093 33.411 9.41022 33.2104 9.76397 33.01C13.7457 30.7537 19.5829 28.5 27 28.5C28.1046 28.5 29 29.3954 29 30.5V35.9563L40.2535 24L29 12.0432Z"></path></svg>