<svg width="33" height="33" viewBox="0 0 48 48" fill="currentColor" xmlns="http://www.w3.org/2000/svg"><path fill-rule="evenodd" clip-rule="evenodd" d="M8 22C8 15.1462 14.8065 9 24 9C33.1935 9 40 15.1462 40 22C40 26.2956 37.8555 30.0744 34.8094 33.2377C32.7121 35.4156 30.2606 37.2216 28 38.6036V35H24C14.8065 35 8 28.8538 8 22ZM24 5C13.3112 5 4 12.2852 4 22C4 31.7148 13.3112 39 24 39V42C24 42.6932 24.3589 43.3369 24.9485 43.7013C25.5382 44.0657 26.2745 44.0988 26.8944 43.7889C30.0249 42.2236 34.2346 39.6013 37.6906 36.0123C41.1445 32.4256 44 27.7044 44 22C44 12.2852 34.6888 5 24 5ZM18 22.5C18 23.8807 16.8807 25 15.5 25C14.1193 25 13 23.8807 13 22.5C13 21.1193 14.1193 20 15.5 20C16.8807 20 18 21.1193 18 22.5ZM26.5 22.5C26.5 23.8807 25.3807 25 24 25C22.6193 25 21.5 23.8807 21.5 22.5C21.5 21.1193 22.6193 20 24 20C25.3807 20 26.5 21.1193 26.5 22.5ZM32.5 25C33.8807 25 35 23.8807 35 22.5C35 21.1193 33.8807 20 32.5 20C31.1193 20 30 21.1193 30 22.5C30 23.8807 31.1193 25 32.5 25Z"></path></svg>