<svg width="34" height="34" viewBox="0 0 48 48" fill="none" xmlns="http://www.w3.org/2000/svg"><path d="M24.0173 3C12.4102 3 3 12.3947 3 23.9827C3 32.8766 8.53541 40.4753 16.3542 43.5321C16.1639 41.8742 16.0082 39.3183 16.4234 37.5049C16.8039 35.8643 18.8797 27.074 18.8797 27.074C18.8797 27.074 18.257 25.8133 18.257 23.9655C18.257 21.0469 19.9522 18.8709 22.0626 18.8709C23.8616 18.8709 24.7265 20.2179 24.7265 21.824C24.7265 23.6201 23.5848 26.3141 22.9794 28.8183C22.4777 30.9079 24.0345 32.6176 26.093 32.6176C29.8294 32.6176 32.7009 28.6801 32.7009 23.0156C32.7009 17.9901 29.0856 14.4844 23.9135 14.4844C17.9283 14.4844 14.4168 18.9572 14.4168 23.5855C14.4168 25.3816 15.1087 27.3158 15.9736 28.3692C16.1466 28.5765 16.1639 28.7664 16.112 28.9737C15.9563 29.6299 15.5931 31.0633 15.5239 31.3569C15.4374 31.7368 15.2125 31.8232 14.8146 31.6332C12.1853 30.4071 10.542 26.5905 10.542 23.4992C10.542 16.8849 15.3509 10.8059 24.4324 10.8059C31.7149 10.8059 37.3887 15.9868 37.3887 22.9293C37.3887 30.1653 32.822 35.9852 26.4909 35.9852C24.3632 35.9852 22.3566 34.8799 21.682 33.5674C21.682 33.5674 20.6268 37.574 20.3673 38.5584C19.9003 40.389 18.6202 42.6686 17.7553 44.0674C19.7273 44.6719 21.8031 45 23.9827 45C35.5897 45 44.9999 35.6053 44.9999 24.0173C45.0345 12.3947 35.6243 3 24.0173 3Z" fill="#E60019"></path></svg>