<svg class="upload-icon" width="37" height="37" viewBox="0 0 48 48" fill="currentColor" xmlns="http://www.w3.org/2000/svg"><path fill-rule="evenodd" clip-rule="evenodd" d="M25.5001 37H34.5C39.7467 37 44 32.7467 44 27.5C44 22.7115 40.4571 18.7504 35.8497 18.0951C34.937 12.373 29.9792 8 24 8C17.3726 8 12 13.3726 12 20L12 20.0145C7.53831 20.2733 4 23.9734 4 28.5C4 33.1944 7.80558 37 12.5 37H22.5001V25.1213L19.9143 27.7071C19.7191 27.9024 19.4025 27.9024 19.2072 27.7071L17.793 26.2929C17.5977 26.0976 17.5977 25.781 17.793 25.5858L22.9395 20.4393C23.5252 19.8536 24.475 19.8536 25.0608 20.4393L30.2072 25.5858C30.4025 25.781 30.4025 26.0976 30.2072 26.2929L28.793 27.7071C28.5977 27.9024 28.2812 27.9024 28.0859 27.7071L25.5001 25.1213V37Z"></path></svg>